<svg width="100" height="100" viewBox="0 0 100 100" fill="none" xmlns="http://www.w3.org/2000/svg">
<rect width="100" height="100" rx="16" fill="#016630"/>
<g filter="url(#filter0_d_2_7)">
<path d="M31 22.5C32.6667 22.5 38.5 22.5 38.5 29" stroke="white" stroke-width="3"/>
</g>
<g filter="url(#filter1_d_2_7)">
<path d="M37 14H39C43.4183 14 47 17.5817 47 22V77C47 79.7614 44.7614 82 42 82V82C39.2386 82 37 79.7614 37 77V14Z" fill="white"/>
<path d="M39 13.5C43.6944 13.5 47.5 17.3056 47.5 22V77C47.5 80.0376 45.0376 82.5 42 82.5C38.9624 82.5 36.5 80.0376 36.5 77V13.5H39Z" stroke="white"/>
</g>
<g filter="url(#filter2_d_2_7)">
<path d="M13 19C13 16.2386 15.2386 14 18 14H37V24H18C15.2386 24 13 21.7614 13 19V19Z" fill="white"/>
<path d="M37.5 13.5V24.5H18C14.9624 24.5 12.5 22.0376 12.5 19C12.5 15.9624 14.9624 13.5 18 13.5H37.5Z" stroke="white"/>
</g>
<g filter="url(#filter3_d_2_7)">
<rect x="52" y="14" width="34" height="10" rx="5" fill="white"/>
<rect x="51.5" y="13.5" width="35" height="11" rx="5.5" stroke="white"/>
</g>
<g filter="url(#filter4_d_2_7)">
<rect x="76" y="36" width="10" height="10" rx="5" fill="white"/>
<rect x="75.5" y="35.5" width="11" height="11" rx="5.5" stroke="white"/>
</g>
<g filter="url(#filter5_d_2_7)">
<path d="M53.3904 48.1358C52.8021 47.2637 53.0322 46.0798 53.9044 45.4916V45.4916C57.6109 42.9915 62.6423 43.9695 65.1424 47.676L85.5421 77.9198C86.1303 78.7919 85.9002 79.9757 85.0281 80.564V80.564C81.3216 83.0641 76.2901 82.0861 73.79 78.3795L53.3904 48.1358Z" fill="white"/>
<path d="M53.6244 45.0773C57.5598 42.4228 62.9027 43.4613 65.5572 47.3968L85.9568 77.6405C86.6991 78.7414 86.4087 80.2355 85.308 80.9782C81.3727 83.6326 76.0303 82.5947 73.3758 78.6595L52.9756 48.415C52.2333 47.3141 52.5238 45.82 53.6244 45.0773Z" stroke="white"/>
</g>
<defs>
<filter id="filter0_d_2_7" x="25" y="19" width="17" height="16" filterUnits="userSpaceOnUse" color-interpolation-filters="sRGB">
<feFlood flood-opacity="0" result="BackgroundImageFix"/>
<feColorMatrix in="SourceAlpha" type="matrix" values="0 0 0 0 0 0 0 0 0 0 0 0 0 0 0 0 0 0 127 0" result="hardAlpha"/>
<feOffset dx="-2" dy="2"/>
<feGaussianBlur stdDeviation="2"/>
<feComposite in2="hardAlpha" operator="out"/>
<feColorMatrix type="matrix" values="0 0 0 0 0.72549 0 0 0 0 0.972549 0 0 0 0 0.811765 0 0 0 0.34 0"/>
<feBlend mode="normal" in2="BackgroundImageFix" result="effect1_dropShadow_2_7"/>
<feBlend mode="normal" in="SourceGraphic" in2="effect1_dropShadow_2_7" result="shape"/>
</filter>
<filter id="filter1_d_2_7" x="30" y="11" width="20" height="78" filterUnits="userSpaceOnUse" color-interpolation-filters="sRGB">
<feFlood flood-opacity="0" result="BackgroundImageFix"/>
<feColorMatrix in="SourceAlpha" type="matrix" values="0 0 0 0 0 0 0 0 0 0 0 0 0 0 0 0 0 0 127 0" result="hardAlpha"/>
<feOffset dx="-2" dy="2"/>
<feGaussianBlur stdDeviation="2"/>
<feComposite in2="hardAlpha" operator="out"/>
<feColorMatrix type="matrix" values="0 0 0 0 0.72549 0 0 0 0 0.972549 0 0 0 0 0.811765 0 0 0 0.34 0"/>
<feBlend mode="normal" in2="BackgroundImageFix" result="effect1_dropShadow_2_7"/>
<feBlend mode="normal" in="SourceGraphic" in2="effect1_dropShadow_2_7" result="shape"/>
</filter>
<filter id="filter2_d_2_7" x="6" y="11" width="34" height="20" filterUnits="userSpaceOnUse" color-interpolation-filters="sRGB">
<feFlood flood-opacity="0" result="BackgroundImageFix"/>
<feColorMatrix in="SourceAlpha" type="matrix" values="0 0 0 0 0 0 0 0 0 0 0 0 0 0 0 0 0 0 127 0" result="hardAlpha"/>
<feOffset dx="-2" dy="2"/>
<feGaussianBlur stdDeviation="2"/>
<feComposite in2="hardAlpha" operator="out"/>
<feColorMatrix type="matrix" values="0 0 0 0 0.72549 0 0 0 0 0.972549 0 0 0 0 0.811765 0 0 0 0.34 0"/>
<feBlend mode="normal" in2="BackgroundImageFix" result="effect1_dropShadow_2_7"/>
<feBlend mode="normal" in="SourceGraphic" in2="effect1_dropShadow_2_7" result="shape"/>
</filter>
<filter id="filter3_d_2_7" x="45" y="11" width="44" height="20" filterUnits="userSpaceOnUse" color-interpolation-filters="sRGB">
<feFlood flood-opacity="0" result="BackgroundImageFix"/>
<feColorMatrix in="SourceAlpha" type="matrix" values="0 0 0 0 0 0 0 0 0 0 0 0 0 0 0 0 0 0 127 0" result="hardAlpha"/>
<feOffset dx="-2" dy="2"/>
<feGaussianBlur stdDeviation="2"/>
<feComposite in2="hardAlpha" operator="out"/>
<feColorMatrix type="matrix" values="0 0 0 0 0.72549 0 0 0 0 0.972549 0 0 0 0 0.811765 0 0 0 0.34 0"/>
<feBlend mode="normal" in2="BackgroundImageFix" result="effect1_dropShadow_2_7"/>
<feBlend mode="normal" in="SourceGraphic" in2="effect1_dropShadow_2_7" result="shape"/>
</filter>
<filter id="filter4_d_2_7" x="69" y="33" width="20" height="20" filterUnits="userSpaceOnUse" color-interpolation-filters="sRGB">
<feFlood flood-opacity="0" result="BackgroundImageFix"/>
<feColorMatrix in="SourceAlpha" type="matrix" values="0 0 0 0 0 0 0 0 0 0 0 0 0 0 0 0 0 0 127 0" result="hardAlpha"/>
<feOffset dx="-2" dy="2"/>
<feGaussianBlur stdDeviation="2"/>
<feComposite in2="hardAlpha" operator="out"/>
<feColorMatrix type="matrix" values="0 0 0 0 0.72549 0 0 0 0 0.972549 0 0 0 0 0.811765 0 0 0 0.34 0"/>
<feBlend mode="normal" in2="BackgroundImageFix" result="effect1_dropShadow_2_7"/>
<feBlend mode="normal" in="SourceGraphic" in2="effect1_dropShadow_2_7" result="shape"/>
</filter>
<filter id="filter5_d_2_7" x="46.0644" y="38.9648" width="42.8036" height="52.126" filterUnits="userSpaceOnUse" color-interpolation-filters="sRGB">
<feFlood flood-opacity="0" result="BackgroundImageFix"/>
<feColorMatrix in="SourceAlpha" type="matrix" values="0 0 0 0 0 0 0 0 0 0 0 0 0 0 0 0 0 0 127 0" result="hardAlpha"/>
<feOffset dx="-2" dy="2"/>
<feGaussianBlur stdDeviation="2"/>
<feComposite in2="hardAlpha" operator="out"/>
<feColorMatrix type="matrix" values="0 0 0 0 0.72549 0 0 0 0 0.972549 0 0 0 0 0.811765 0 0 0 0.34 0"/>
<feBlend mode="normal" in2="BackgroundImageFix" result="effect1_dropShadow_2_7"/>
<feBlend mode="normal" in="SourceGraphic" in2="effect1_dropShadow_2_7" result="shape"/>
</filter>
</defs>
</svg>
